<?xml version="1.0" encoding="UTF-8" standalone="no"?>
<!DOCTYPE svg PUBLIC "-//W3C//DTD SVG 1.0//EN" "http://www.w3.org/TR/2001/PR-SVG-20010719/DTD/svg10.dtd">
<svg width="23cm" height="20cm" viewBox="11 46 458 391" xmlns="http://www.w3.org/2000/svg" xmlns:xlink="http://www.w3.org/1999/xlink">
  <g id="Arrière-plan">
    <g>
      <rect style="fill: #ffffff; fill-opacity: 1; stroke-opacity: 1; stroke-width: 2; stroke: #000000" x="87.675" y="47" width="120.65" height="38" rx="0" ry="0"/>
      <text font-size="12.7998" style="fill: #000000; fill-opacity: 1; stroke: none;text-anchor:middle;font-family:sans-serif;font-style:normal;font-weight:normal" x="148" y="69.9">
        <tspan x="148" y="69.9">Avant la boucle</tspan>
      </text>
    </g>
    <g>
      <rect style="fill: #ffffff; fill-opacity: 1; stroke-opacity: 1; stroke-width: 2; stroke: #000000" x="40.35" y="130" width="209.3" height="38" rx="0" ry="0"/>
      <text font-size="12.7998" style="fill: #000000; fill-opacity: 1; stroke: none;text-anchor:middle;font-family:sans-serif;font-style:normal;font-weight:normal" x="145" y="152.9">
        <tspan x="145" y="152.9">compteur = valeur de départ</tspan>
      </text>
    </g>
    <g>
      <polygon style="fill: #ffffff; fill-opacity: 1; stroke-opacity: 1; stroke-width: 2; stroke: #000000" fill-rule="evenodd" points="144,229.481 275.038,295 144,360.519 12.9618,295 "/>
      <text font-size="12.7998" style="fill: #000000; fill-opacity: 1; stroke: none;text-anchor:middle;font-family:sans-serif;font-style:normal;font-weight:normal" x="144" y="290.9">
        <tspan x="144" y="290.9">compteur &lt; </tspan>
        <tspan x="144" y="306.9">valeur d'arrivee</tspan>
      </text>
    </g>
    <g>
      <rect style="fill: #ffffff; fill-opacity: 1; stroke-opacity: 1; stroke-width: 2; stroke: #000000" x="311.725" y="278" width="116.55" height="38" rx="0" ry="0"/>
      <text font-size="12.7998" style="fill: #000000; fill-opacity: 1; stroke: none;text-anchor:middle;font-family:sans-serif;font-style:normal;font-weight:normal" x="370" y="300.9">
        <tspan x="370" y="300.9">Dans la boucle</tspan>
      </text>
    </g>
    <g>
      <rect style="fill: #ffffff; fill-opacity: 1; stroke-opacity: 1; stroke-width: 2; stroke: #000000" x="320.725" y="346" width="98.55" height="70" rx="0" ry="0"/>
      <text font-size="12.7998" style="fill: #000000; fill-opacity: 1; stroke: none;text-anchor:middle;font-family:sans-serif;font-style:normal;font-weight:normal" x="370" y="368.9">
        <tspan x="370" y="368.9">compteur =</tspan>
        <tspan x="370" y="384.9">compteur +</tspan>
        <tspan x="370" y="400.9">pas</tspan>
      </text>
    </g>
    <g>
      <rect style="fill: #ffffff; fill-opacity: 1; stroke-opacity: 1; stroke-width: 2; stroke: #000000" x="76.75" y="398" width="120.5" height="38" rx="0" ry="0"/>
      <text font-size="12.7998" style="fill: #000000; fill-opacity: 1; stroke: none;text-anchor:middle;font-family:sans-serif;font-style:normal;font-weight:normal" x="137" y="420.9">
        <tspan x="137" y="420.9">Après la boucle</tspan>
      </text>
    </g>
    <g>
      <line style="fill: none; stroke-opacity: 1; stroke-width: 2; stroke: #000000" x1="147.277" y1="85.9901" x2="146.074" y2="119.28"/>
      <polygon style="fill: #000000; fill-opacity: 1; stroke-opacity: 1; stroke-width: 2; stroke: #000000" fill-rule="evenodd" points="145.803,126.775 141.168,116.601 146.074,119.28 151.161,116.962 "/>
    </g>
    <g>
      <line style="fill: none; stroke-opacity: 1; stroke-width: 2; stroke: #000000" x1="144.863" y1="169.005" x2="144.52" y2="219.037"/>
      <polygon style="fill: #000000; fill-opacity: 1; stroke-opacity: 1; stroke-width: 2; stroke: #000000" fill-rule="evenodd" points="144.469,226.536 139.538,216.502 144.52,219.037 149.537,216.571 "/>
    </g>
    <g>
      <line style="fill: none; stroke-opacity: 1; stroke-width: 2; stroke: #000000" x1="140.289" y1="359.671" x2="138.679" y2="387.741"/>
      <polygon style="fill: #000000; fill-opacity: 1; stroke-opacity: 1; stroke-width: 2; stroke: #000000" fill-rule="evenodd" points="138.249,395.229 133.83,384.959 138.679,387.741 143.814,385.531 "/>
    </g>
    <text font-size="12.7998" style="fill: #000000; fill-opacity: 1; stroke: none;text-anchor:start;font-family:sans-serif;font-style:normal;font-weight:normal" x="152" y="372">
      <tspan x="152" y="372">Faux</tspan>
    </text>
    <g>
      <line style="fill: none; stroke-opacity: 1; stroke-width: 2; stroke: #000000" x1="274.725" y1="296.157" x2="300.992" y2="296.389"/>
      <polygon style="fill: #000000; fill-opacity: 1; stroke-opacity: 1; stroke-width: 2; stroke: #000000" fill-rule="evenodd" points="308.491,296.456 298.448,301.367 300.992,296.389 298.536,291.367 "/>
    </g>
    <text font-size="12.7998" style="fill: #000000; fill-opacity: 1; stroke: none;text-anchor:start;font-family:sans-serif;font-style:normal;font-weight:normal" x="270" y="268">
      <tspan x="270" y="268">Vrai</tspan>
    </text>
    <g>
      <line style="fill: none; stroke-opacity: 1; stroke-width: 2; stroke: #000000" x1="370" y1="316.852" x2="370" y2="335.293"/>
      <polygon style="fill: #000000; fill-opacity: 1; stroke-opacity: 1; stroke-width: 2; stroke: #000000" fill-rule="evenodd" points="370,342.793 365,332.793 370,335.293 375,332.793 "/>
    </g>
    <g>
      <line style="fill: none; stroke-opacity: 1; stroke-width: 2; stroke: #000000" x1="464" y1="200" x2="154.394" y2="198.923"/>
      <polygon style="fill: #000000; fill-opacity: 1; stroke-opacity: 1; stroke-width: 2; stroke: #000000" fill-rule="evenodd" points="146.894,198.897 156.912,193.932 154.394,198.923 156.877,203.932 "/>
    </g>
    <g>
      <line style="fill: none; stroke-opacity: 1; stroke-width: 2; stroke: #000000" x1="419.275" y1="381" x2="454.266" y2="381.782"/>
      <polygon style="fill: #000000; fill-opacity: 1; stroke-opacity: 1; stroke-width: 2; stroke: #000000" fill-rule="evenodd" points="461.764,381.95 451.655,386.725 454.266,381.782 451.879,376.728 "/>
    </g>
    <g>
      <line style="fill: none; stroke-opacity: 1; stroke-width: 2; stroke: #000000" x1="463" y1="384" x2="462.053" y2="208.736"/>
      <polygon style="fill: #000000; fill-opacity: 1; stroke-opacity: 1; stroke-width: 2; stroke: #000000" fill-rule="evenodd" points="462.012,201.236 467.066,211.209 462.053,208.736 457.066,211.263 "/>
    </g>
  </g>
</svg>
